HIERARCHY
ROOT hips
{
  OFFSET -0.00735851563513279 12.18665635585785 0.12248523347079754
  CHANNELS 6 Xposition Yposition Zposition Yrotation Xrotation Zrotation
  JOINT spine
  {
    OFFSET 1.0244548320770264e-7 0.5955291986465454 0
    CHANNELS 3 Yrotation Xrotation Zrotation
    JOINT chest
    {
      OFFSET 0 1.2719063864449713 0
      CHANNELS 3 Yrotation Xrotation Zrotation
      JOINT upperChest
      {
        OFFSET 0 1.490802666915459 0
        CHANNELS 3 Yrotation Xrotation Zrotation
        JOINT neck
        {
          OFFSET 0 1.3131953345263365 0
          CHANNELS 3 Yrotation Xrotation Zrotation
          JOINT head
          {
            OFFSET 0 0.8653679716847534 0
            CHANNELS 3 Yrotation Xrotation Zrotation
            JOINT leftEye
            {
              OFFSET 0.20629723300226033 0.6721053123474121 0.3036841657012701
              CHANNELS 3 Yrotation Xrotation Zrotation
              End Site
              {
                OFFSET 0.20629723300226033 0.6721053123474121 0.3036841657012701
              }
            }
            JOINT rightEye
            {
              OFFSET -0.20629652100615203 0.6721066236495972 0.30368443205952644
              CHANNELS 3 Yrotation Xrotation Zrotation
              End Site
              {
                OFFSET -0.20629652100615203 0.6721066236495972 0.30368443205952644
              }
            }
          }
        }
        JOINT leftShoulder
        {
          OFFSET 0.24624172446783632 0.959903359413147 0
          CHANNELS 3 Yrotation Xrotation Zrotation
          JOINT leftUpperArm
          {
            OFFSET 0.9650355761446514 0 0
            CHANNELS 3 Yrotation Xrotation Zrotation
            JOINT leftLowerArm
            {
              OFFSET 2.4419134471639827 0 0
              CHANNELS 3 Yrotation Xrotation Zrotation
              JOINT leftHand
              {
                OFFSET 2.3874557408809456 0 0
                CHANNELS 3 Yrotation Xrotation Zrotation
                JOINT leftIndexProximal
                {
                  OFFSET 0.7029628753662109 0.06118142604827881 0.23586585000157356
                  CHANNELS 3 Yrotation Xrotation Zrotation
                  JOINT leftIndexIntermediate
                  {
                    OFFSET 0.36102771759033203 -0.001475214958190918 0.056637559086084366
                    CHANNELS 3 Yrotation Xrotation Zrotation
                    JOINT leftIndexDistal
                    {
                      OFFSET 0.22344785928726196 -0.007408857345581055 0.02531452476978302
                      CHANNELS 3 Yrotation Xrotation Zrotation
                      End Site
                      {
                        OFFSET 0.22344785928726196 -0.007408857345581055 0.02531452476978302
                      }
                    }
                  }
                }
                JOINT leftLittleProximal
                {
                  OFFSET 0.6958752870559692 0.034375786781311035 -0.29472956992685795
                  CHANNELS 3 Yrotation Xrotation Zrotation
                  JOINT leftLittleIntermediate
                  {
                    OFFSET 0.34538060426712036 -0.0030041933059692383 0.00024324655532836914
                    CHANNELS 3 Yrotation Xrotation Zrotation
                    JOINT leftLittleDistal
                    {
                      OFFSET 0.19865047931671143 0.00746917724609375 -0.010377676226198673
                      CHANNELS 3 Yrotation Xrotation Zrotation
                      End Site
                      {
                        OFFSET 0.19865047931671143 0.00746917724609375 -0.010377676226198673
                      }
                    }
                  }
                }
                JOINT leftMiddleProximal
                {
                  OFFSET 0.7272291779518127 0.09209799766540527 0.05257739871740341
                  CHANNELS 3 Yrotation Xrotation Zrotation
                  JOINT leftMiddleIntermediate
                  {
                    OFFSET 0.40590834617614746 -0.014838695526123047 0.026817932724952698
                    CHANNELS 3 Yrotation Xrotation Zrotation
                    JOINT leftMiddleDistal
                    {
                      OFFSET 0.2495119571685791 -0.026458144187927246 0.010310646146535873
                      CHANNELS 3 Yrotation Xrotation Zrotation
                      End Site
                      {
                        OFFSET 0.2495119571685791 -0.026458144187927246 0.010310646146535873
                      }
                    }
                  }
                }
                JOINT leftRingProximal
                {
                  OFFSET 0.7334893345832825 0.09136629104614258 -0.1205735495314002
                  CHANNELS 3 Yrotation Xrotation Zrotation
                  JOINT leftRingIntermediate
                  {
                    OFFSET 0.3775520920753479 -0.005917906761169434 0.001896639820188284
                    CHANNELS 3 Yrotation Xrotation Zrotation
                    JOINT leftRingDistal
                    {
                      OFFSET 0.2177620530128479 0.007703900337219238 0.0027355607599020004
                      CHANNELS 3 Yrotation Xrotation Zrotation
                      End Site
                      {
                        OFFSET 0.2177620530128479 0.007703900337219238 0.0027355607599020004
                      }
                    }
                  }
                }
                JOINT leftThumbProximal
                {
                  OFFSET 0.02235114574432373 -0.07603192329406738 0.1950724683701992
                  CHANNELS 3 Yrotation Xrotation Zrotation
                  JOINT leftThumbIntermediate
                  {
                    OFFSET 0.3551589846611023 -0.02970755100250244 0.36741212010383606
                    CHANNELS 3 Yrotation Xrotation Zrotation
                    JOINT leftThumbDistal
                    {
                      OFFSET 0.23456048965454102 -0.016631245613098145 0.2093813568353653
                      CHANNELS 3 Yrotation Xrotation Zrotation
                      End Site
                      {
                        OFFSET 0.23456048965454102 -0.016631245613098145 0.2093813568353653
                      }
                    }
                  }
                }
              }
            }
          }
        }
        JOINT rightShoulder
        {
          OFFSET -0.24624088185373694 0.9600239992141724 0
          CHANNELS 3 Yrotation Xrotation Zrotation
          JOINT rightUpperArm
          {
            OFFSET -0.9650300767908009 0 0
            CHANNELS 3 Yrotation Xrotation Zrotation
            JOINT rightLowerArm
            {
              OFFSET -2.4420125187833426 0 0
              CHANNELS 3 Yrotation Xrotation Zrotation
              JOINT rightHand
              {
                OFFSET -2.3874255620910265 0 0
                CHANNELS 3 Yrotation Xrotation Zrotation
                JOINT rightIndexProximal
                {
                  OFFSET -0.7029609084129333 0.06117355823516846 0.23587234504520893
                  CHANNELS 3 Yrotation Xrotation Zrotation
                  JOINT rightIndexIntermediate
                  {
                    OFFSET -0.3610270619392395 -0.0014804601669311523 0.05664427950978279
                    CHANNELS 3 Yrotation Xrotation Zrotation
                    JOINT rightIndexDistal
                    {
                      OFFSET -0.2234485149383545 -0.0074127912521362305 0.025317884981632233
                      CHANNELS 3 Yrotation Xrotation Zrotation
                      End Site
                      {
                        OFFSET -0.2234485149383545 -0.0074127912521362305 0.025317884981632233
                      }
                    }
                  }
                }
                JOINT rightLittleProximal
                {
                  OFFSET -0.6958779096603394 0.034366607666015625 -0.29472311586141586
                  CHANNELS 3 Yrotation Xrotation Zrotation
                  JOINT rightLittleIntermediate
                  {
                    OFFSET -0.3453786373138428 -0.003008127212524414 0.00025422871112823486
                    CHANNELS 3 Yrotation Xrotation Zrotation
                    JOINT rightLittleDistal
                    {
                      OFFSET -0.19865179061889648 0.00746917724609375 -0.010371447540819645
                      CHANNELS 3 Yrotation Xrotation Zrotation
                      End Site
                      {
                        OFFSET -0.19865179061889648 0.00746917724609375 -0.010371447540819645
                      }
                    }
                  }
                }
                JOINT rightMiddleProximal
                {
                  OFFSET -0.7272304892539978 0.09209012985229492 0.05258418060839176
                  CHANNELS 3 Yrotation Xrotation Zrotation
                  JOINT rightMiddleIntermediate
                  {
                    OFFSET -0.4059063792228699 -0.014843940734863281 0.026821313425898552
                    CHANNELS 3 Yrotation Xrotation Zrotation
                    JOINT rightMiddleDistal
                    {
                      OFFSET -0.24951326847076416 -0.026460766792297363 0.010313207283616066
                      CHANNELS 3 Yrotation Xrotation Zrotation
                      End Site
                      {
                        OFFSET -0.24951326847076416 -0.026460766792297363 0.010313207283616066
                      }
                    }
                  }
                }
                JOINT rightRingProximal
                {
                  OFFSET -0.7334906458854675 0.09135580062866211 -0.12056719791144133
                  CHANNELS 3 Yrotation Xrotation Zrotation
                  JOINT rightRingIntermediate
                  {
                    OFFSET -0.37755340337753296 -0.005923151969909668 0.0019026175141334534
                    CHANNELS 3 Yrotation Xrotation Zrotation
                    JOINT rightRingDistal
                    {
                      OFFSET -0.21775943040847778 0.007701277732849121 0.0027383523993194103
                      CHANNELS 3 Yrotation Xrotation Zrotation
                      End Site
                      {
                        OFFSET -0.21775943040847778 0.007701277732849121 0.0027383523993194103
                      }
                    }
                  }
                }
                JOINT rightThumbProximal
                {
                  OFFSET -0.022347867488861084 -0.07603061199188232 0.19507363624870777
                  CHANNELS 3 Yrotation Xrotation Zrotation
                  JOINT rightThumbIntermediate
                  {
                    OFFSET -0.3550455570220947 -0.029461026191711426 0.36754218488931656
                    CHANNELS 3 Yrotation Xrotation Zrotation
                    JOINT rightThumbDistal
                    {
                      OFFSET -0.23451131582260132 -0.016489624977111816 0.20944765955209732
                      CHANNELS 3 Yrotation Xrotation Zrotation
                      End Site
                      {
                        OFFSET -0.23451131582260132 -0.016489624977111816 0.20944765955209732
                      }
                    }
                  }
                }
              }
            }
          }
        }
      }
    }
  }
  JOINT leftUpperLeg
  {
    OFFSET 0.8483456987887621 -0.42556869983673096 0
    CHANNELS 3 Yrotation Xrotation Zrotation
    JOINT leftLowerLeg
    {
      OFFSET 0 -4.6702112872869534 0
      CHANNELS 3 Yrotation Xrotation Zrotation
      JOINT leftFoot
      {
        OFFSET -0.13096565008163452 -5.202569782733917 -0.2985280640423298
        CHANNELS 3 Yrotation Xrotation Zrotation
        JOINT leftToes
        {
          OFFSET 0.01423943042755127 -0.7568342834711075 1.213271364569664
          CHANNELS 3 Yrotation Xrotation Zrotation
          End Site
          {
            OFFSET 0.01423943042755127 -0.7568342834711075 1.213271364569664
          }
        }
      }
    }
  }
  JOINT rightUpperLeg
  {
    OFFSET -0.8483468051999807 -0.42556607723236084 0
    CHANNELS 3 Yrotation Xrotation Zrotation
    JOINT rightLowerLeg
    {
      OFFSET 0 -4.670219469177788 0
      CHANNELS 3 Yrotation Xrotation Zrotation
      JOINT rightFoot
      {
        OFFSET 0.13097601756453514 -5.202573716640472 -0.29853164963424206
        CHANNELS 3 Yrotation Xrotation Zrotation
        JOINT rightToes
        {
          OFFSET -0.014232628047466278 -0.7568355947732925 1.213272675871849
          CHANNELS 3 Yrotation Xrotation Zrotation
          End Site
          {
            OFFSET -0.014232628047466278 -0.7568355947732925 1.213272675871849
          }
        }
      }
    }
  }
}
MOTION
Frames: 8
Frame Time: 0.03333333333333333
-1.2600606497645204 -5.215180949887654 -1.790529117056028 28.58937771236811 0.5110719465487789 -17.22437169112733 13.82041538191924 18.997420238342638 -5.840053933849762 2.5165024379583203 -16.289541210808924 33.930997955163264 0 0 0 -50.700818483274396 -32.827889113476864 49.47931654265205 -22.672889100552155 -8.901938985223843 -9.057583239874278 0 0 0 0 0 0 19.205710033326305 1.7139979059010584 -7.596576469742664 -92.00661101688291 42.45228581490264 -122.0094259211794 -76.95559644415239 35.83974460581954 40.938142717276314 7.691041318874303 -2.102843344275917 -34.145965718379344 0 0 0 0 0 0 0 0 0 0 0 0 0 0 0 0 0 0 0 0 0 0 0 0 0 0 0 0 0 0 0 0 0 0 0 0 0 0 0 0 0 0 0 0 0 15.279843060540303 -2.1218928802676076 22.62484126329314 -20.18580324593161 4.656201298505136 17.868955072600947 22.439746981406046 41.35399668812459 24.867410446272434 -2.8437866187001197 -1.2708016545531773 10.996518084830063 0 0 0 0 0 0 0 0 0 0 0 0 0 0 0 0 0 0 0 0 0 0 0 0 0 0 0 0 0 0 0 0 0 0 0 0 0 0 0 0 0 0 0 0 0 -99.56214202142988 -62.49179642606878 135.61404734387506 97.8694153032864 46.96022522642746 108.18434140939154 -48.29142990427483 32.97883312618961 -35.90491461933247 0 0 0 -25.911209717367164 4.013869124693084 -35.58770656876758 -9.681019212236603 -2.705239550633104 -6.661725067491328 -0.39884307314748485 44.269954828362046 14.515145297107098 0 0 0
-1.2616729716023465 -5.218943183282732 -1.7916041175666992 28.45980902373094 0.45972767703683237 -17.157564956229646 13.904022182192653 18.965769267660797 -5.939798032854214 2.6325319866661987 -16.24008876745367 33.926990104326784 0 0 0 -50.679304037746356 -32.962611453857974 49.455474416341154 -22.664721339717293 -9.015886380200188 -8.883860496995256 0 0 0 0 0 0 19.484732084772393 1.7165514064000054 -7.641253706474517 -92.63792480272517 42.426764809465375 -122.10952313049137 -76.7204896822493 36.116534074305605 41.41239655702172 7.434933070874576 -2.0428014823826284 -34.25196361316383 0 0 0 0 0 0 0 0 0 0 0 0 0 0 0 0 0 0 0 0 0 0 0 0 0 0 0 0 0 0 0 0 0 0 0 0 0 0 0 0 0 0 0 0 0 15.09498043609318 -2.071869227657975 22.476116449072386 -20.271293956956388 4.93395130294228 17.972704543241516 22.663332064874904 40.9105415408788 24.709646687274546 -2.5853217985017705 -1.159895823481598 11.043229249845405 0 0 0 0 0 0 0 0 0 0 0 0 0 0 0 0 0 0 0 0 0 0 0 0 0 0 0 0 0 0 0 0 0 0 0 0 0 0 0 0 0 0 0 0 0 -99.29485287919007 -62.48351632812418 135.4248364892485 97.9665057150843 47.13381225400364 108.2516812994598 -48.20284636545055 32.92600253231043 -35.82738775827023 0 0 0 -26.03492076254636 3.8154676668903216 -35.66542437020855 -9.831159928479861 -2.7520459061234748 -6.629489035541485 -0.21694136362456476 44.19762529294322 14.560707325190052 0 0 0
-1.2632852934401726 -5.22270541667781 -1.7926791180773707 28.330181730808818 0.408534658356869 -17.09064141285903 13.987795689974812 18.934154993337167 -6.03943416355374 2.748528882121661 -16.190627417067493 33.923088985947444 0 0 0 -50.657686420378276 -33.0973234770104 49.431538570870494 -22.65690167845612 -9.129858501611274 -8.710099450115425 0 0 0 0 0 0 19.763750202875876 1.7193222935562384 -7.685916593126906 -93.26891646933862 42.400430991634195 -122.20919047399217 -76.48171345048725 36.391731684812974 41.88973369206581 7.1787229297288135 -1.9832338572644668 -34.35822076477676 0 0 0 0 0 0 0 0 0 0 0 0 0 0 0 0 0 0 0 0 0 0 0 0 0 0 0 0 0 0 0 0 0 0 0 0 0 0 0 0 0 0 0 0 0 14.909994838590286 -2.0223255661481176 22.327237145922208 -20.356315866912283 5.211854884511204 18.076083797251872 22.88703940403808 40.467549488513434 24.550652967816923 -2.3267761558251485 -1.0492017338071913 11.090439307910591 0 0 0 0 0 0 0 0 0 0 0 0 0 0 0 0 0 0 0 0 0 0 0 0 0 0 0 0 0 0 0 0 0 0 0 0 0 0 0 0 0 0 0 0 0 -99.02769978769122 -62.47482469673789 135.23576340622142 98.06421521246415 47.307323080731365 108.31967708983333 -48.11440171867208 32.87306928061089 -35.75000477623149 0 0 0 -26.158334842371065 3.616899858131801 -35.74269550842993 -9.981332014658152 -2.798767765601603 -6.597130366723982 -0.035342880389127695 44.125189373049515 14.605893613287277 0 0 0
-1.2648976152779987 -5.226467650072888 -1.793754118588042 28.200494612604608 0.3574932201017228 -17.023602817937114 14.071734366516193 18.9025809946652 -6.138961581271159 2.864493189708934 -16.141158907132006 33.91929451133585 0 0 0 -50.63596738716414 -33.23202996471866 49.407501974715125 -22.64943035427874 -9.243852364193543 -8.536297548722995 0 0 0 0 0 0 20.042767876664044 1.722310675092184 -7.730566474576257 -93.89957632694494 42.37329000172213 -122.30841469884821 -76.23923917249972 36.665309879816945 42.370191597792356 6.922411948426451 -1.924141633930815 -34.46474077074694 0 0 0 0 0 0 0 0 0 0 0 0 0 0 0 0 0 0 0 0 0 0 0 0 0 0 0 0 0 0 0 0 0 0 0 0 0 0 0 0 0 0 0 0 0 14.724887176782667 -1.9732626684664443 22.178200592651848 -20.440871402177333 5.489910206908367 18.17909517352154 23.110891845119852 40.02503868104822 24.390439383403333 -2.068148040280986 -0.9387218305923621 11.13814560044544 0 0 0 0 0 0 0 0 0 0 0 0 0 0 0 0 0 0 0 0 0 0 0 0 0 0 0 0 0 0 0 0 0 0 0 0 0 0 0 0 0 0 0 0 0 -98.7606901513334 -62.46572189100118 135.04683625773433 98.16255120039497 47.48075350074813 108.38833413470799 -48.026091916994616 32.82003757361492 -35.67276533955311 0 0 0 -26.28145252770587 3.4181662062389595 -35.81951916942231 -10.13153794344614 -2.845404722702536 -6.564647370360872 0.1459536566174333 44.05265209600283 14.650704313190106 0 0 0
-1.2611354713470109 -5.235066670053263 -1.800203405939346 27.797632309236576 -0.19804507774033223 -17.060432191637766 14.42629244225732 18.345107885819885 -5.908528855253996 3.691040799360538 -15.01553575493617 33.436089256638034 0 0 0 -49.845213050440215 -32.26233307762588 48.68078289695148 -22.59006965370349 -9.739310353127935 -8.182195960223536 0 0 0 0 0 0 19.43604098298994 1.7551208283746338 -7.837245887909303 -94.7764003543589 43.66372599062024 -121.27400710249033 -78.72197527285898 35.837646686695116 42.31848706838394 7.0854487215853625 -1.9322982967455116 -34.944046676922014 0 0 0 0 0 0 0 0 0 0 0 0 0 0 0 0 0 0 0 0 0 0 0 0 0 0 0 0 0 0 0 0 0 0 0 0 0 0 0 0 0 0 0 0 0 14.580809584825646 -1.8227116027842722 21.473549893428174 -20.633439011156533 6.720520034643579 18.833077555650174 23.653071343318587 37.93436095941344 23.60423297288942 -1.224132336783334 -0.5678458771184074 11.003596260693936 0 0 0 0 0 0 0 0 0 0 0 0 0 0 0 0 0 0 0 0 0 0 0 0 0 0 0 0 0 0 0 0 0 0 0 0 0 0 0 0 0 0 0 0 0 -96.81590803033455 -62.1803449416647 133.4518203528406 98.19707923332258 47.36060111144333 108.51490082233249 -48.3304534848659 32.52084148220976 -35.64524083896406 0 0 0 -25.852188599798804 3.7040229250670365 -35.84129535658511 -10.615556395115084 -2.9128064419349795 -6.663057273910676 -0.11780591493826417 44.279513268824125 14.622884283595466 0 0 0
-1.2573733274160233 -5.243665690033639 -1.8066526932906501 27.3950940937338 -0.7538285320214997 -17.093358377748853 14.776888999575455 17.787715064528097 -5.674832202648024 4.503595740926925 -13.883369548594303 32.97210518872011 0 0 0 -49.077192049488296 -31.284416371269547 47.977403786611234 -22.53373081850552 -10.235120494396538 -7.828075501899753 0 0 0 0 0 0 18.829241946618527 1.7867999701934287 -7.944269444232165 -95.6397396150144 44.965501389245105 -120.24452593470467 -81.1784005467239 35.00895661159347 42.31112726352542 7.248548525043368 -1.9390915947112826 -35.42337447992207 0 0 0 0 0 0 0 0 0 0 0 0 0 0 0 0 0 0 0 0 0 0 0 0 0 0 0 0 0 0 0 0 0 0 0 0 0 0 0 0 0 0 0 0 0 14.434901664116717 -1.6739431119452144 20.768580052290027 -20.81234579704605 7.953231387959832 19.484692039194375 24.215953495599724 35.84967466667033 22.814871109426047 -0.38102631429076883 -0.19502942475800944 10.874530840988578 0 0 0 0 0 0 0 0 0 0 0 0 0 0 0 0 0 0 0 0 0 0 0 0 0 0 0 0 0 0 0 0 0 0 0 0 0 0 0 0 0 0 0 0 0 -94.9076479278701 -61.870222199450005 131.89377871564457 98.23113729652434 47.24039477350945 108.6410749888757 -48.6339765019888 32.22177033662675 -35.615928087080285 0 0 0 -25.42288787419158 3.9900342650781035 -35.860930711533 -11.099487274475281 -2.9810359211091 -6.760900220228652 -0.38274415845390963 44.50628169740465 14.59349119051935 0 0 0
-1.2536111834850354 -5.252264710014014 -1.8131019806419542 26.99280592829059 -1.309829434110566 -17.12238321302262 15.123415408977902 17.2304225619549 -5.437853802704337 5.3029244774796735 -12.74499637037553 32.52680014834109 0 0 0 -48.330930114989265 -30.298679203336427 47.296410585047745 -22.480421740865985 -10.731263396498148 -7.473884347186847 0 0 0 0 0 0 18.222376276138025 1.8173444218815111 -8.051623047230267 -96.48946722843566 46.27814123056232 -119.21925180689321 -83.61031758403594 34.180767874954476 42.34678083501441 7.41169957229825 -1.9445210844068268 -35.90272128024934 0 0 0 0 0 0 0 0 0 0 0 0 0 0 0 0 0 0 0 0 0 0 0 0 0 0 0 0 0 0 0 0 0 0 0 0 0 0 0 0 0 0 0 0 0 14.287185244679042 -1.5269807508433428 20.063284138599027 -20.977621067345154 9.187878744255928 20.134523619699635 24.79928725340203 33.77140662035322 22.020610876423998 0.46123700798522166 0.17964480827842425 10.750965655368404 0 0 0 0 0 0 0 0 0 0 0 0 0 0 0 0 0 0 0 0 0 0 0 0 0 0 0 0 0 0 0 0 0 0 0 0 0 0 0 0 0 0 0 0 0 -93.03759314127765 -61.536175186020394 130.3744352097346 98.26473038243746 47.12013432636962 108.76685883376885 -48.9366870148536 31.92283491227753 -35.584849043790705 0 0 0 -24.99352915406758 4.276184182516873 -35.87842656369862 -11.583332090296754 -3.050088065600345 -6.858168541181014 -0.6488826687033019 44.73295025573997 14.562507618651921 0 0 0
-1.2439371629939888 -5.270000429158282 -1.8399742200219324 26.10925583254115 -3.244991985867912 -16.927534263469315 15.162824028357464 15.96072868134849 -4.43748136741556 7.063489456676887 -8.249322043047444 30.900540849476332 0 0 0 -46.30301632872569 -27.257064321957195 46.450606890694225 -21.559076168348145 -11.655777807791996 -7.516129574612338 0 0 0 0 0 0 16.03452014659007 1.5890559713623353 -6.601075364571206 -89.81217263641331 52.87622883048943 -107.90653110886093 -90.14745439512589 30.4673786904678 38.04373424735779 8.112675448024188 -2.13262623552797 -35.05488509162538 0 0 0 0 0 0 0 0 0 0 0 0 0 0 0 0 0 0 0 0 0 0 0 0 0 0 0 0 0 0 0 0 0 0 0 0 0 0 0 0 0 0 0 0 0 14.414919052241938 -1.1150750792388244 17.79162523958934 -19.63535135043267 12.504846001584648 22.099905251417347 28.13099935265116 28.866446289932448 20.521419546479926 2.339331651860815 0.9540442485330866 11.185921739375074 0 0 0 0 0 0 0 0 0 0 0 0 0 0 0 0 0 0 0 0 0 0 0 0 0 0 0 0 0 0 0 0 0 0 0 0 0 0 0 0 0 0 0 0 0 -87.59187537708878 -61.20802951223874 125.55880068456665 98.78739086726664 47.82330196673919 109.12657481606102 -49.00985261784367 31.34993574783867 -35.3058716993329 0 0 0 -23.34392381268989 4.148545122720378 -36.50291057599733 -11.919453029505865 -0.975295552293639 -7.469635801991642 -0.3787211278839924 44.632521172505555 14.706742246159873 0 0 0
